<svg xmlns="http://www.w3.org/2000/svg" xmlns:xlink="http://www.w3.org/1999/xlink" width="58.816" height="51.79" viewBox="0 0 58.816 51.79"><defs><filter id="a" x="43.963" y="28.907" width="14.853" height="13.739" filterUnits="userSpaceOnUse"><feOffset dy="1" input="SourceAlpha"/><feGaussianBlur stdDeviation="1.5" result="b"/><feFlood flood-opacity="0.161"/><feComposite operator="in" in2="b"/><feComposite in="SourceGraphic"/></filter><filter id="c" x="12.379" y="0.168" width="26.705" height="33.224" filterUnits="userSpaceOnUse"><feOffset dy="1" input="SourceAlpha"/><feGaussianBlur stdDeviation="1.5" result="d"/><feFlood flood-opacity="0.161"/><feComposite operator="in" in2="d"/><feComposite in="SourceGraphic"/></filter><filter id="e" x="0" y="12.39" width="56.346" height="39.4" filterUnits="userSpaceOnUse"><feOffset dy="1" input="SourceAlpha"/><feGaussianBlur stdDeviation="1.5" result="f"/><feFlood flood-opacity="0.161"/><feComposite operator="in" in2="f"/><feComposite in="SourceGraphic"/></filter><filter id="g" x="19.708" y="0" width="24.841" height="32.721" filterUnits="userSpaceOnUse"><feOffset dy="1" input="SourceAlpha"/><feGaussianBlur stdDeviation="1.5" result="h"/><feFlood flood-opacity="0.161"/><feComposite operator="in" in2="h"/><feComposite in="SourceGraphic"/></filter></defs><g transform="translate(-728.25 -273.525) rotate(-4)"><g transform="matrix(1, 0.07, -0.07, 1, 707.4, 323.66)" filter="url(#a)"><path d="M0,0A8.084,8.084,0,0,1,.074,4.034,8.68,8.68,0,0,1,5.344,2.96S.626-.082,0,0Z" transform="translate(49.02 32.41) rotate(8)"/></g><g transform="translate(724.339 329.89)"><g transform="matrix(1, 0.07, -0.07, 1, -16.94, -6.23)" filter="url(#c)"><path d="M1,18.684C.83,18.6-2.075,4.163,2.879.747S13.215,6.213,8,15.694C6.382,18.769,5.7,19.367,5.527,20.478S1.171,18.769,1,18.684Z" transform="matrix(0.95, -0.33, 0.33, 0.95, 17.52, 7.65)" fill="#ebebeb" stroke="#000" stroke-width="1"/></g><path d="M0,0S1.741,4.669,7.636,11.632" transform="matrix(0.914, 0.407, -0.407, 0.914, 6.086, 5.105)" fill="none" stroke="#000" stroke-linejoin="round" stroke-width="0.5"/></g><g transform="matrix(1, 0.07, -0.07, 1, 707.4, 323.66)" filter="url(#e)"><g transform="translate(8.22 15.89) rotate(9)" fill="#fff243"><path d="M 22.08470344543457 23.28353500366211 C 16.26695251464844 23.28353500366211 10.80519390106201 22.06779479980469 6.705513477325439 19.86027526855469 C 4.738183498382568 18.80094528198242 3.198333501815796 17.57339477539062 2.128723382949829 16.21171379089355 C 1.047983407974243 14.83586502075195 0.500003457069397 13.38241481781006 0.500003457069397 11.89176464080811 C 0.500003457069397 10.40111446380615 1.047983407974243 8.947674751281738 2.128723382949829 7.57181453704834 C 3.198333501815796 6.210134506225586 4.738183498382568 4.982584476470947 6.705513477325439 3.923254728317261 C 10.80519390106201 1.715734601020813 16.26695251464844 0.5000046491622925 22.08470344543457 0.5000046491622925 C 27.9024543762207 0.5000046491622925 33.36422348022461 1.715734601020813 37.46389389038086 3.923254728317261 C 39.43122482299805 4.982584476470947 40.97107315063477 6.210134506225586 42.04068374633789 7.57181453704834 C 43.12142181396484 8.947674751281738 43.66940307617188 10.40111446380615 43.66940307617188 11.89176464080811 C 43.66940307617188 13.38241481781006 43.12142181396484 14.83586502075195 42.04068374633789 16.21171379089355 C 40.97107315063477 17.57339477539062 39.43122482299805 18.80094528198242 37.46389389038086 19.86027526855469 C 33.36422348022461 22.06779479980469 27.9024543762207 23.28353500366211 22.08470344543457 23.28353500366211 Z" stroke="none"/><path d="M 22.08470344543457 0.9999942779541016 C 16.34824371337891 0.9999942779541016 10.97066497802734 2.194503784179688 6.942562103271484 4.363485336303711 C 5.036125183105469 5.390024185180664 3.548812866210938 6.573385238647461 2.521923065185547 7.880674362182617 C 1.512054443359375 9.166304588317871 1.000003814697266 10.51583480834961 1.000003814697266 11.89176464080811 C 1.000003814697266 13.2676944732666 1.512054443359375 14.61721420288086 2.521923065185547 15.90285491943359 C 3.548812866210938 17.21014404296875 5.036125183105469 18.39349365234375 6.942562103271484 19.42003440856934 C 10.97066497802734 21.58901405334473 16.34824371337891 22.78352546691895 22.08470344543457 22.78352546691895 C 27.82116317749023 22.78352546691895 33.19874572753906 21.58901405334473 37.22684478759766 19.42003440856934 C 39.13328552246094 18.39349365234375 40.6205940246582 17.21014404296875 41.64748382568359 15.90285491943359 C 42.65735244750977 14.61721420288086 43.16940307617188 13.2676944732666 43.16940307617188 11.89176464080811 C 43.16940307617188 10.51583480834961 42.65735244750977 9.166304588317871 41.64748382568359 7.880674362182617 C 40.6205940246582 6.573385238647461 39.13328552246094 5.390024185180664 37.22684478759766 4.363485336303711 C 33.19874572753906 2.194503784179688 27.82116317749023 0.9999942779541016 22.08470344543457 0.9999942779541016 M 22.08470344543457 -5.7220458984375e-06 C 34.28175354003906 -5.7220458984375e-06 44.16940307617188 5.324125289916992 44.16940307617188 11.89176464080811 C 44.16940307617188 18.45940399169922 34.28175354003906 23.78352546691895 22.08470344543457 23.78352546691895 C 9.887653350830078 23.78352546691895 3.814697265625e-06 18.45940399169922 3.814697265625e-06 11.89176464080811 C 3.814697265625e-06 5.324125289916992 9.887653350830078 -5.7220458984375e-06 22.08470344543457 -5.7220458984375e-06 Z" stroke="none" fill="#000"/></g></g><g transform="translate(720.423 343.899)"><path d="M723.05,342.453s-4.82,19.627-3.808,20.3a16.107,16.107,0,0,0,3.808,1.907c1.18.337,4.14-21.755,3.867-22.209S723.05,342.453,723.05,342.453Z" transform="translate(-719.102 -342.251)"/><path d="M5.265,0S-1.139,22.691.179,23.262A25.939,25.939,0,0,0,5.007,24.6c.455,0,4.654-23.125,4.368-23.465S5.265,0,5.265,0Z" transform="matrix(0.996, -0.087, 0.087, 0.996, 6.547, 0.881)"/><path d="M4.72,0S-.853,22.413.112,22.6s3.063.268,3.654.32S8.614,2.349,8.342,1.9,4.72,0,4.72,0Z" transform="matrix(0.996, -0.087, 0.087, 0.996, 15.439, 2.825)"/><path d="M3.865,0S-.87,17.6.142,18.276c.969.137,3.068-.694,4.258-1.013C5.563,16.226,7.667,4.253,7.452,3.633A29.525,29.525,0,0,0,3.865,0Z" transform="matrix(0.995, -0.105, 0.105, 0.995, 23.575, 6.437)"/></g><g transform="translate(730.447 329.82)"><g transform="matrix(1, 0.07, -0.07, 1, -23.05, -6.16)" filter="url(#g)"><path d="M1,18.684C.83,18.6-2.075,4.163,2.879.747S13.215,6.213,8,15.694C6.382,18.769,5.7,19.367,5.527,20.478S1.171,18.769,1,18.684Z" transform="matrix(0.97, 0.22, -0.22, 0.97, 29.47, 4.11)" fill="#f2f2f2" stroke="#000" stroke-width="1"/></g><path d="M736.612,335.4s.132,4.137-5.748,13.215" transform="translate(-727.567 -328.86)" fill="none" stroke="#000" stroke-linejoin="round" stroke-width="0.5"/></g><g transform="translate(715.803 348.069)"><circle cx="2.276" cy="2.276" r="2.276" transform="translate(0 0)"/><circle cx="1.133" cy="1.133" r="1.133" transform="translate(0.379 1.095)" fill="#fff"/></g></g></svg>